<svg id="Layer_1" data-name="Layer 1" xmlns="http://www.w3.org/2000/svg" viewBox="0 0 64 64"><defs><style>.cls-1{fill:#0076b2;}</style></defs><title>11_slots</title><path class="cls-1" d="M58.1,10.39a5.24,5.24,0,1,0-2,0V27.92H55V20.71H48.62V0h-47V64h47V43.29H55V36.08h6.14V27.92H58.1ZM41.39,61.06V62H8.89v-.92ZM6.87,59V62H3.68V47.32H46.6V62H43.41V59ZM46.6,2V45.29H3.68V2ZM53,22.73V41.27H48.62V22.73Zm6.14,7.21v4.12H55V29.94ZM53.87,5.25a3.23,3.23,0,1,1,3.22,3.22A3.23,3.23,0,0,1,53.87,5.25Z"/><path class="cls-1" d="M6.87,57.13H35.81V49.57H6.87Zm26.92-5.54v3.52H8.89V51.59Z"/><path class="cls-1" d="M43.41,49.57H37.55v7.56h5.86Zm-3.84,5.54V51.59h1.82v3.52Z"/><path class="cls-1" d="M10.91,39.57a4,4,0,1,0-4-4A4,4,0,0,0,10.91,39.57Zm-2-4a2,2,0,1,1,2,2A2,2,0,0,1,8.89,35.53Z"/><path class="cls-1" d="M24.43,35.53a4,4,0,1,0-4,4A4,4,0,0,0,24.43,35.53Zm-2,0a2,2,0,1,1-2-2A2,2,0,0,1,22.41,35.53Z"/><path class="cls-1" d="M33.92,35.53a4,4,0,1,0-4,4A4,4,0,0,0,33.92,35.53Zm-2,0a2,2,0,1,1-2-2A2,2,0,0,1,31.9,35.53Z"/><path class="cls-1" d="M39.37,31.5a4,4,0,1,0,4,4A4,4,0,0,0,39.37,31.5Zm2,4a2,2,0,1,1-2-2A2,2,0,0,1,41.39,35.53Z"/><path class="cls-1" d="M43.41,5H6.87V29.07H43.41Zm-2,2V27.05H31.9V7ZM29.88,7V27.05H20.4V7ZM18.38,7V27.05H8.89V7Z"/><polygon class="cls-1" points="11.33 21.07 13.32 21.07 17.61 12.41 11.02 12.41 11.02 14.03 14.84 14.03 11.33 21.07"/><polygon class="cls-1" points="22.45 21.07 24.44 21.07 28.73 12.41 22.13 12.41 22.13 14.03 25.96 14.03 22.45 21.07"/><polygon class="cls-1" points="33.62 20.96 33.56 21.07 35.55 21.07 39.85 12.41 33.25 12.41 33.25 14.03 37.08 14.03 33.62 20.96"/><rect class="cls-1" x="10.83" y="41.39" width="28.62" height="2.02"/></svg>