<svg id="Layer_1" data-name="Layer 1" xmlns="http://www.w3.org/2000/svg" viewBox="0 0 64 64"><defs><style>.cls-1{fill:#0076b2;}</style></defs><title>12_roulette</title><path class="cls-1" d="M54.63,9.37A32,32,0,0,0,9.37,54.63,32,32,0,0,0,54.63,9.37ZM53.21,53.21A30,30,0,1,1,10.79,10.79,30,30,0,1,1,53.21,53.21Zm0,0"/><path class="cls-1" d="M51.8,12.2A28,28,0,0,0,12.2,51.8,28,28,0,0,0,51.8,12.2ZM33,58V57a1,1,0,0,0-2,0v1A26,26,0,0,1,6,33H7a1,1,0,0,0,0-2H6A26,26,0,0,1,31,6V7a1,1,0,0,0,2,0V6A26,26,0,0,1,58,31H57a1,1,0,0,0,0,2h1A26,26,0,0,1,33,58Zm0,0"/><path class="cls-1" d="M52.33,23.6v0a22,22,0,0,0-4.67-7l-.09-.12-.12-.09a22,22,0,0,0-7-4.67h0a22,22,0,0,0-16.8,0h0a22,22,0,0,0-7,4.67l-.12.09-.09.12a22,22,0,0,0-4.67,7v0a22,22,0,0,0,0,16.8v0h0a22,22,0,0,0,4.67,7l.09.12.12.09a22,22,0,0,0,7,4.67h0a21.94,21.94,0,0,0,16.79,0h0a22,22,0,0,0,7-4.67l.12-.09.09-.12a22,22,0,0,0,4.67-7h0v0a21.94,21.94,0,0,0,0-16.79ZM50.84,38.72l-5.56-2.3A13.39,13.39,0,0,0,46,33h6a19.7,19.7,0,0,1-1.13,5.72Zm-4,6.69-4.24-4.25a14.19,14.19,0,0,0,1.94-2.89l5.55,2.3a19.84,19.84,0,0,1-3.25,4.84Zm-6.25,4.66-2.3-5.55a14.19,14.19,0,0,0,2.89-1.94l4.25,4.24a19.84,19.84,0,0,1-4.84,3.25Zm-22-3.25,4.25-4.24a14.19,14.19,0,0,0,2.89,1.94l-2.3,5.55a19.84,19.84,0,0,1-4.84-3.25Zm-4.66-6.25,5.55-2.3a14.19,14.19,0,0,0,1.94,2.89l-4.24,4.25a19.84,19.84,0,0,1-3.25-4.84Zm-.77-15.29,5.56,2.3A13.39,13.39,0,0,0,18,31H12a19.7,19.7,0,0,1,1.13-5.72Zm4-6.69,4.24,4.25a14.19,14.19,0,0,0-1.94,2.89l-5.55-2.3a19.84,19.84,0,0,1,3.25-4.84Zm6.25-4.66,2.3,5.55a14.19,14.19,0,0,0-2.89,1.94l-4.25-4.24a19.84,19.84,0,0,1,4.84-3.25Zm22,3.25-4.25,4.24a14.19,14.19,0,0,0-2.89-1.94l2.3-5.55a19.84,19.84,0,0,1,4.84,3.25Zm4.66,6.25-5.55,2.3a14.19,14.19,0,0,0-1.94-2.89l4.24-4.25a19.84,19.84,0,0,1,3.25,4.84ZM32,44A12,12,0,1,1,44,32,12,12,0,0,1,32,44Zm4.42-25.28A13.39,13.39,0,0,0,33,18V12a19.7,19.7,0,0,1,5.72,1.13ZM31,18a13.39,13.39,0,0,0-3.42.68l-2.3-5.56A19.7,19.7,0,0,1,31,12ZM12,33h6a13.39,13.39,0,0,0,.68,3.42l-5.56,2.3A19.7,19.7,0,0,1,12,33ZM27.58,45.28A13.39,13.39,0,0,0,31,46v6a19.7,19.7,0,0,1-5.72-1.13ZM33,46a13.39,13.39,0,0,0,3.42-.68l2.3,5.56A19.7,19.7,0,0,1,33,52ZM46,31a13.39,13.39,0,0,0-.68-3.42l5.56-2.3A19.7,19.7,0,0,1,52,31Zm0,0"/><path class="cls-1" d="M42,32.29s0,0,0,0,0,0,0-.05v0a.07.07,0,0,1,0,0v-.2a.07.07,0,0,1,0,0s0,0,0,0,0,0,0,0,0,0,0-.05,0,0,0,0a.08.08,0,0,0,0-.05h0s0,0,0,0l0,0,0,0,0,0,0,0,0,0,0,0,0,0,0,0,0,0,0,0-.05,0,0,0,0,0,0,0,0,0-6.31-2.7-2.14-5.73,0,0s0,0,0-.05a.08.08,0,0,0,0,0s0,0,0,0l0,0,0,0,0-.05,0,0,0,0,0,0,0,0,0,0,0,0,0,0-.05,0,0,0,0,0,0,0h0l-.06,0h-.56l-.06,0h0l-.05,0,0,0-.05,0,0,0,0,0,0,0,0,0,0,0,0,0,0,0,0,0,0,0,0,0,0,0a.08.08,0,0,0,0,0s0,0,0,.05l0,0-2.29,6.12-6.12,2.29h0l-.05,0,0,0-.05,0,0,0,0,0,0,0,0,0,0,0,0,0,0,0,0,0,0,0,0,0,0,0,0,0,0,.05,0,0h0s0,0,0,.06,0,0,0,0a.43.43,0,0,0,0,0s0,0,0,0a.07.07,0,0,1,0,0v.2a.07.07,0,0,1,0,0v0a.43.43,0,0,0,0,.05s0,0,0,0,0,0,0,.06h0v0a.39.39,0,0,0,.06.11v0a.76.76,0,0,0,.08.11l0,0a.28.28,0,0,0,.09.1h0l.09.08h0a.41.41,0,0,0,.11.07h0l.07,0,5.73,2.14,2.7,6.31v0l.05.1v0l.08.11,0,0,.08.08v0l.11.07,0,0,.09,0h0l.11,0h0l.11,0h.32l.11,0h0l.1,0h0l.09,0,0,0a.39.39,0,0,0,.1-.08h0l.08-.08,0,0,.07-.11h0s0-.08.06-.11v0l2.54-5.93,5.93-2.54h0l.09,0,0,0,.11-.08h0l.08-.08,0,0,.07-.11h0a1.17,1.17,0,0,1,0-.11v0h0a.08.08,0,0,0,0-.05s0,0,0,0ZM32,38.46,30.94,36H31a1,1,0,0,0,.33-.06A3.71,3.71,0,0,0,32,36a4.1,4.1,0,0,0,1.12-.16ZM30,32a2,2,0,1,1,2,2,2,2,0,0,1-2-2Zm2.84-3.91A3.86,3.86,0,0,0,32,28a3.71,3.71,0,0,0-.67.06l-.14,0L32,25.85Zm-4.78,3.24A3.71,3.71,0,0,0,28,32a3.86,3.86,0,0,0,.09.84L25.85,32,28,31.19a.74.74,0,0,0,0,.14Zm7.88,0a.84.84,0,0,0,.06-.39L38.46,32l-2.62,1.12A4.1,4.1,0,0,0,36,32a3.71,3.71,0,0,0-.06-.67Zm0,0"/></svg>