<svg id="Layer_1" data-name="Layer 1" xmlns="http://www.w3.org/2000/svg" viewBox="0 0 64 64"><defs><style>.cls-1{fill:#0076b2;}</style></defs><title>13_blackjack</title><path class="cls-1" d="M56.54,20.69H39.2V2.37A2.37,2.37,0,0,0,36.83,0h-29A2.38,2.38,0,0,0,5.49,2.37v40a2.38,2.38,0,0,0,2.38,2.37H24.8V62.09a2,2,0,0,0,2,2H56.54a2,2,0,0,0,2-2V22.65A2,2,0,0,0,56.54,20.69Zm0,41.37H26.79V22.68H56.52ZM37.21,20.69H26.76a2,2,0,0,0-2,2v20.1H7.87a.38.38,0,0,1-.39-.38v-40A.38.38,0,0,1,7.87,2h29a.38.38,0,0,1,.38.38Z"/><path class="cls-1" d="M41.65,50.42a14.26,14.26,0,0,0-3.33.55l-.34.08h0L38.4,53v0l.4-.1a13.18,13.18,0,0,1,2.84-.49,13.07,13.07,0,0,1,2.84.49l.39.09h0l.45-1.92v0L45,51A14.08,14.08,0,0,0,41.65,50.42Z"/><path class="cls-1" d="M36.12,48.19a6,6,0,0,0,2.49.46,6.63,6.63,0,0,0,3-.66,6.73,6.73,0,0,0,3.06.66,5.87,5.87,0,0,0,2.48-.46,5.26,5.26,0,0,0,3-5c0-2.67-2.51-4.67-4.72-6.44l0,0h0v0c-1.29-1-2.64-2.11-2.9-2.92l-.92-2.88,0-.07-.94,2.95c-.26.81-1.61,1.89-2.91,2.93-2.21,1.76-4.73,3.77-4.73,6.44A5.27,5.27,0,0,0,36.12,48.19Z"/><path class="cls-1" d="M34.12,31.62H31.34l-.47,1.44h-2l2.81-8.47h2.07l2.88,8.47h-2Zm-1.39-4.23-.82,2.47h1.63Z"/><path class="cls-1" d="M22.35,29.91a14.26,14.26,0,0,0-3.33.55l-.34.09h0l.44,1.92v0l.4-.1a13.18,13.18,0,0,1,2.84-.49,13.07,13.07,0,0,1,2.84.49l.39.09h0L26,30.58v0l-.37-.09A14.61,14.61,0,0,0,22.35,29.91Z"/><path class="cls-1" d="M26.76,20.69h3.7c-.83-1.74-2.62-3.17-4.25-4.48l0,0v0c-1.3-1-2.64-2.11-2.9-2.93l-.92-2.87,0-.08-.94,2.95c-.27.82-1.61,1.89-2.91,2.93C16.28,18,13.77,20,13.77,22.66a5.26,5.26,0,0,0,3.05,5,6,6,0,0,0,2.48.46,6.52,6.52,0,0,0,3.05-.66,6.24,6.24,0,0,0,2.45.63V22.65A2,2,0,0,1,26.76,20.69Z"/><path class="cls-1" d="M10.83,12a8.77,8.77,0,0,0,.88,0c.84,0,1.28-.36,1.28-1.68V5.22h2v5.49c0,2-.86,3.13-3.24,3.13-.36,0-.76,0-1.13-.05Z"/></svg>