<svg id="Layer_1" data-name="Layer 1" xmlns="http://www.w3.org/2000/svg" viewBox="0 0 64 64"><defs><style>.cls-1{fill:#0076b2;}</style></defs><title>15_video_poker</title><path class="cls-1" d="M38.59,56l-2,2H27.41l-2-2H0v3.41L4.59,64H59.41L64,59.41V56ZM62,58.59,58.59,62H5.41L2,58.59V58H24.59l2,2H37.41l2-2H62Z"/><path class="cls-1" d="M6,52H21V50H6V22a2,2,0,0,1,2-2H9v0L21.31,46.64l10.93-5.08,10.2,5.1L55.1,20H56a2,2,0,0,1,2,2V50H43v2H58v2h2V22a4,4,0,0,0-4-4l2.49-5.25.09-.18L35.25.46l-.18-.1-3,6L29.52,1.17,6.13,13.29,6,13.38,8.09,18H8a4,4,0,0,0-4,4V54H6ZM36,3.1,56,13.48,41.5,43.93,20.74,33.55Zm-7.36.81,2.32,4.75L18,34.46l11.91,5.95L22.29,44,8.6,14.29Z"/><rect class="cls-1" x="27" y="50" width="2" height="2"/><rect class="cls-1" x="23" y="50" width="2" height="2"/><rect class="cls-1" x="31" y="50" width="2" height="2"/><rect class="cls-1" x="35" y="50" width="2" height="2"/><rect class="cls-1" x="39" y="50" width="2" height="2"/><path class="cls-1" d="M33.82,32.29l10.83-4.92-1-11.82L32.83,20.47Zm8.07-13.71.63,7.54L35.6,29.26,35,21.72Z"/><rect class="cls-1" x="36.07" y="6.42" width="2.21" height="2.02" transform="translate(13.93 37.37) rotate(-63.48)"/><rect class="cls-1" x="11.79" y="14.81" width="2.02" height="2.21" transform="translate(-5.78 7.42) rotate(-26.62)"/><rect class="cls-1" x="39.14" y="38.62" width="2.21" height="2.02" transform="translate(-13.17 57.99) rotate(-63.52)"/></svg>