<svg id="Layer_1" data-name="Layer 1" xmlns="http://www.w3.org/2000/svg" viewBox="0 0 64 64"><defs><style>.cls-1{fill:#0076b2;}</style></defs><title>14_baccarat</title><path class="cls-1" d="M47.13,15.87H16.87a16.87,16.87,0,0,0,0,33.74H47.13a16.87,16.87,0,0,0,0-33.74Zm0,31.72H16.87a14.85,14.85,0,0,1,0-29.7H47.13a14.85,14.85,0,0,1,0,29.7Z"/><path class="cls-1" d="M46.87,19H17.13a13.72,13.72,0,0,0,0,27.44H46.87a13.72,13.72,0,1,0,0-27.44ZM17.13,21H46.87a11.59,11.59,0,0,1,7,2.34l-4.69,6.56a3.81,3.81,0,0,1-2.28,6.87H17.09a3.81,3.81,0,0,1-2.28-6.87l-1.18-1.65-3.51-4.91A11.59,11.59,0,0,1,17.13,21ZM5.43,32.74a11.64,11.64,0,0,1,3.18-8l3.6,5A5.85,5.85,0,0,0,12.1,36L7.79,39.78A11.59,11.59,0,0,1,5.43,32.74Zm17,11.7H17.13a11.68,11.68,0,0,1-8-3.15l4.3-3.74a5.82,5.82,0,0,0,3.65,1.28H22.4Zm17.18,0H24.42V38.83H39.58Zm7.29,0H41.6V38.83h5.31a5.82,5.82,0,0,0,3.65-1.28l4.3,3.74A11.7,11.7,0,0,1,46.87,44.44Zm9.34-4.66L51.9,36a5.85,5.85,0,0,0-.11-6.25l3.6-5a11.67,11.67,0,0,1,.82,15Z"/><rect class="cls-1" x="22.4" y="23.14" width="2.02" height="5.61"/><rect class="cls-1" x="26.7" y="23.14" width="2.02" height="5.61"/><rect class="cls-1" x="30.99" y="23.14" width="2.02" height="5.61"/><rect class="cls-1" x="35.28" y="23.14" width="2.02" height="5.61"/><rect class="cls-1" x="39.58" y="23.14" width="2.02" height="5.61"/><rect class="cls-1" x="20.38" y="5.01" width="2.19" height="2.02"/><rect class="cls-1" x="47.05" y="9.41" width="2.19" height="2.02"/><rect class="cls-1" x="4.23" y="15.75" width="2.19" height="2.02"/><rect class="cls-1" x="37.56" y="51.96" width="2.19" height="2.02"/><rect class="cls-1" x="53.36" y="57.02" width="2.19" height="2.02"/><rect class="cls-1" x="13.81" y="57.02" width="2.19" height="2.02"/></svg>